<?xml version="1.0" encoding="UTF-8"?>
<svg xmlns="http://www.w3.org/2000/svg" version="1.1" xmlns:xlink="http://www.w3.org/1999/xlink" xmlns:svgjs="http://svgjs.com/svgjs" height="118" width="344"><defs id="SvgjsDefs4899"></defs>
              <g id="SvgjsG4900" rel="mainfill" name="main_text" xmlns:name="main_text" transform="translate(135,-183)" fill="#ffffff">
                <path d="M20.30 186.34L43.66 271.98L40.75 272.75L27.59 224.61L8.19 224.61L3.21 239.95L0.05 239.95L17.36 186.20L20.30 186.34M25.39 216.56L18.71 192.19L10.80 216.56L25.39 216.56M18.90 192.49L18.68 191.83L18.90 192.49ZM37.94 187.36L40.33 187.36L40.33 240.08L37.94 240.08L37.94 187.36ZM55.91 213.49Q60.53 213.49 63.90 217.03Q67.26 220.57 67.59 225.66L66.33 225.66L66.33 225.71L47.23 225.71Q47.31 229.20 49.90 231.30Q52.48 233.41 56.08 233.41Q59.10 233.41 61.45 231.89Q63.80 230.38 64.62 227.80L67.59 227.80Q67.26 232.83 64.35 236.30Q61.44 239.78 55.91 239.78Q50.06 239.78 47.15 235.92Q44.24 232.06 44.24 226.62Q44.24 221.18 47.66 217.33Q51.08 213.49 55.91 213.49M64.71 223.32Q63.96 220.41 61.57 218.27Q59.18 216.12 56.08 216.12Q52.97 216.12 50.60 218.27Q48.22 220.41 47.48 223.32L64.71 223.32ZM92.54 240.25L83.80 229.59L75.12 240.30L71.49 240.30L81.99 227.36L70.92 213.79L77.73 213.79L85.40 223.16L92.98 213.79L96.61 213.79L87.21 225.38L99.35 240.25L92.54 240.25ZM121.17 186.34L144.52 271.98L141.61 272.75L128.45 224.61L109.05 224.61L104.08 239.95L100.92 239.95L118.23 186.20L121.17 186.34M126.25 216.56L119.58 192.19L111.66 216.56L126.25 216.56M119.77 192.49L119.55 191.83L119.77 192.49ZM138.89 213.73L141.28 213.79Q149.09 215.49 153.41 219.26Q157.74 223.02 159.28 226.98Q160.19 229.39 160.19 231.81Q160.19 232.06 160.19 232.31Q160.10 234.83 158.92 236.84Q156.86 240.14 153.21 240.14Q152.71 240.14 152.19 240.08L141.28 240.08L141.28 274.76L138.89 274.76L138.89 213.73M141.28 216.32L141.28 233.27L152.55 233.27Q156.17 233.27 156.61 230.85Q156.81 229.75 156.81 228.90Q156.81 227.86 156.53 227.17Q155.32 224.34 153.45 222.47Q151.45 220.52 148.44 218.91Q145.43 217.30 141.28 216.32ZM163.73 213.73L166.12 213.79Q173.92 215.49 178.25 219.26Q182.58 223.02 184.12 226.98Q185.02 229.39 185.02 231.81Q185.02 232.06 185.02 232.31Q184.94 234.83 183.76 236.84Q181.70 240.14 178.05 240.14Q177.55 240.14 177.03 240.08L166.12 240.08L166.12 274.76L163.73 274.76L163.73 213.73M166.12 216.32L166.12 233.27L177.39 233.27Q181.01 233.27 181.45 230.85Q181.64 229.75 181.64 228.90Q181.64 227.86 181.37 227.17Q180.16 224.34 178.29 222.47Q176.29 220.52 173.28 218.91Q170.27 217.30 166.12 216.32ZM207.64 220.55L195.79 220.55Q194.12 220.55 193.80 220.82Q193.49 221.10 193.10 221.51Q192.55 222.06 192.55 222.69Q192.55 222.85 192.58 223.02Q192.72 223.84 194.48 224.48L203.19 227.69Q204.94 228.35 206.91 230.00Q208.87 231.65 208.87 233.90Q208.87 237.66 206.21 238.87Q203.54 240.08 200.88 240.08L189.01 240.08L189.01 233.30L201.24 233.30Q205.47 233.30 205.47 232.00Q205.47 231.95 205.47 231.89Q205.22 230.52 202.44 229.50L193.90 226.40Q191.51 225.52 189.72 224.28Q188.07 223.16 188.05 221.07Q188.05 220.88 188.07 220.68Q188.32 216.92 190.66 215.33Q192.99 213.73 196.15 213.73L207.64 213.73L207.64 220.55Z" fill="#ffffff" style="fill: rgb(255, 255, 255);"></path></g>
                <g id="SvgjsG4901" rel="mainfill" name="slogan_text" xmlns:name="slogan_text" transform="translate(184,-135)" fill="#ffffff"><path d="M1.86 226.61L1.86 240L4.68 240C9.00 240 12.60 238.10 12.60 233.34C12.60 228.49 9.19 226.61 4.68 226.61ZM3.51 228.01L4.51 228.01C8.21 228.01 10.90 229.24 10.90 233.32C10.90 237.16 8.29 238.60 4.51 238.60L3.51 238.60ZM23.25 235.45C23.27 235.24 23.29 234.95 23.29 234.78C23.29 231.58 21.74 230.02 19.22 230.02C16.52 230.02 14.68 232.00 14.68 235.05C14.68 238.25 16.48 240.21 19.68 240.21C20.78 240.21 21.72 240.02 22.58 239.64L22.52 238.20C21.66 238.66 20.82 238.91 19.76 238.91C17.67 238.91 16.31 237.60 16.27 235.45ZM16.31 234.24C16.46 232.31 17.63 231.23 19.19 231.23C20.74 231.23 21.76 232.21 21.76 234.24ZM26.15 230.23L24.46 230.23L27.97 240L29.80 240L33.36 230.23L31.79 230.23L29.70 236.43C29.51 237.01 29.16 238.12 28.97 238.77L28.93 238.77C28.76 238.12 28.45 237.05 28.24 236.43ZM43.09 235.45C43.11 235.24 43.13 234.95 43.13 234.78C43.13 231.58 41.58 230.02 39.06 230.02C36.36 230.02 34.52 232.00 34.52 235.05C34.52 238.25 36.32 240.21 39.52 240.21C40.62 240.21 41.56 240.02 42.42 239.64L42.36 238.20C41.50 238.66 40.65 238.91 39.60 238.91C37.51 238.91 36.15 237.60 36.11 235.45ZM36.15 234.24C36.30 232.31 37.47 231.23 39.02 231.23C40.58 231.23 41.59 232.21 41.59 234.24ZM47.33 225.50L45.76 225.50L45.76 240L47.33 240ZM54.91 230.02C51.99 230.02 49.98 232.11 49.98 235.17C49.98 238.14 52.01 240.21 54.83 240.21C57.69 240.21 59.69 238.16 59.69 235.17C59.69 232.13 57.69 230.02 54.91 230.02ZM54.79 231.31C56.73 231.31 58.04 232.84 58.04 235.15C58.04 237.43 56.73 238.93 54.83 238.93C52.91 238.93 51.63 237.45 51.63 235.17C51.63 232.86 52.91 231.31 54.79 231.31ZM62.33 244.03L63.91 244.03L63.91 240.65C63.91 239.98 63.89 238.62 63.85 238.23L63.89 238.23C64.48 239.41 65.67 240.21 67.19 240.21C69.70 240.21 71.37 238.12 71.37 235.01C71.37 232.02 69.72 230.02 67.25 230.02C65.77 230.02 64.60 230.64 63.85 231.94L63.81 231.94C63.81 231.46 63.77 230.66 63.73 230.23L62.24 230.23C62.32 231.06 62.33 232.11 62.33 233.15ZM66.84 231.31C68.63 231.31 69.72 232.84 69.72 235.17C69.72 237.29 68.61 238.93 66.86 238.93C65.15 238.93 63.83 237.26 63.83 235.17C63.83 232.96 65.12 231.31 66.84 231.31ZM81.87 235.45C81.88 235.24 81.90 234.95 81.90 234.78C81.90 231.58 80.35 230.02 77.84 230.02C75.13 230.02 73.29 232.00 73.29 235.05C73.29 238.25 75.09 240.21 78.30 240.21C79.39 240.21 80.33 240.02 81.19 239.64L81.14 238.20C80.27 238.66 79.43 238.91 78.37 238.91C76.28 238.91 74.92 237.60 74.88 235.45ZM74.92 234.24C75.07 232.31 76.24 231.23 77.80 231.23C79.35 231.23 80.37 232.21 80.37 234.24ZM86.05 232.00C86.05 231.50 86.03 230.75 85.97 230.23L84.44 230.23C84.51 231.06 84.53 232.11 84.53 233.15L84.53 240L86.11 240L86.11 235.28C86.11 232.94 87.12 231.46 88.79 231.46C89.16 231.46 89.44 231.50 89.69 231.58L89.69 230.14C89.44 230.06 89.16 230.02 88.81 230.02C87.56 230.02 86.57 230.85 86.09 232.00Z" fill="#ffffff" style="fill: rgb(128, 133, 87);"></path></g>
                <g id="SvgjsG4902" rel="mainfill" name="symbol" xmlns:name="symbol_mainfill" transform="translate(400,-280) scale(1.1)" fill="#ffffff"><path d="M-246.455,327.152l-16.86-64.454c0,0-1.243-4.756-6.002-4.75l-72.96,0.08c0,0-4.759,0.004-3.515,4.761l15.835,60.538  c7.148-15.684,15.203-33.301,15.795-34.599l0.423-0.924l21.84-0.021l-1.048,2.253c-5.985,12.87-13.768,29.775-19.236,41.944  l62.212-0.067C-249.97,331.912-245.211,331.906-246.455,327.152z" fill="#ffffff" style="fill: rgb(255, 255, 255);"></path><path d="M-296.864,290.954l-14.839,0.015c-9.094,19.892-25.758,56.396-26.425,58.074c-1.594,4.007,0.346,6.235,1.171,6.957h56.176  l-1.875-4.804h-35.137c-0.044,0.002-0.107,0.005-0.184,0.005c-1.988,0-3.998-1.204-4.006-3.894  c-0.002-0.629-0.004-1.579,13.149-30.369C-303.924,306.194-298.966,295.487-296.864,290.954z" fill="#ffffff" style="fill: rgb(255, 255, 255);"></path></g></svg>